{"title":"Seconds.Apart.2011.DVDRip.XviD-SPRiNTER","uid":6420448,"size":751375195,"categoryP":"video","categoryS":"movies","magnet":"?xt=urn:btih:76c9cfe680c70b98227afd9660082d89f4910164&amp;dn=Seconds.Apart.2011.DVDRip.XviD-SPRiNTER&amp;tr=udp%3A%2F%2Ftracker.openbittorrent.com%3A80&amp;tr=udp%3A%2F%2Fopen.demonii.com%3A1337&amp;tr=udp%3A%2F%2Ftracker.coppersurfer.tk%3A6969&amp;tr=udp%3A%2F%2Fexodus.desync.com%3A6969","seeders":0,"leechers":0,"uploader":"sceneline","files":57,"time":1306298895,"description":"- &lt;a href=&quot;\nhttp://www.Speed.Cd&quot; rel=&quot;nofollow&quot; target=&quot;_NEW&quot;&gt;\nhttp://www.Speed.Cd&lt;/a&gt; \n       &lt;a href=&quot;\nhttp://www.Speed.Cd&quot; rel=&quot;nofollow&quot; target=&quot;_NEW&quot;&gt;\nhttp://www.Speed.Cd&lt;/a&gt;       the fast  and The Hottest Private Tracker on the net\n\n(((--Registration will be open on june every weekend--)))\n\nPlease Seed back to make the speed Faster!!!\n\nand don't forget to visit      ...... http://www.Speed.Cd..........\n-                                                     \n                                                   \n                                                         \n                                                          \n                                                           \n                                                          \n                                                          \n                                                          \n                                                           \n                                                         \n                                                          \n                                                        \n                                                      \n                                     \n                                                 \n                                                   \n                                             \n                                              \n                                                     \n                                                      \n                                                      \n                                                      \n                                                    \n                                                     \n                                                   \n                                                     \n                                                     \n                                                      \n                                                     \n                                                      \n                                                    \n                 ARTiCHOKE                        \n                                                \n                      \n                                                        \n                                                      \n                                                      \n                                               \n                                          \n                                                   \n                                            \n                                                    \n                                                       \n                                                        \n                                                      \n                                                \n                                                        \n                                                 \n                                              \n                                                  \n                                                \n                                                  \n                                        \n\n      \n                                \n      SPRiNTER proudly presents...     \n                                \n      \n \nSeconds.Apart.2011.DVDRip.XviD-SPRiNTER\n\n\n Date: 2011.05\n\n &lt;a href=&quot; http://www.imdb.com/title/tt1601475/&quot; rel=&quot;nofollow&quot; target=&quot;_NEW&quot;&gt; http://www.imdb.com/title/tt1601475/&lt;/a&gt;\n Genre: Horror, Thriller..\n\n\n\n      \n                 \n      Release notes     \n                 \n      \n\n\n Enjoy!\n\n\n      \n           \n     Greetings    \n           \n      \n\n\nNTX FiCO HNR CiNEFiLE AEN HUMANiSM TASTE 0MNiDVD\n\n\n      \n           \n      Details     \n           \n      \n\nFormat                           : AVI\nFormat/Info                      : Audio Video Interleave\nFile size                        : 701 MiB\nDuration                         : 1h 28mn\nOverall bit rate                 : 1 104 Kbps\nWriting application              : VirtualDubMod 1.5.10.2 (build 2540/release)\nWriting library                  : VirtualDubMod build 2540/release\n\nVideo\nID                               : 0\nFormat                           : MPEG-4 Visual\nFormat profile                   : Advanced Simple@L5\nFormat settings, BVOP            : 2\nFormat settings, QPel            : No\nFormat settings, GMC             : No warppoints\nFormat settings, Matrix          : Default (H.263)\nMuxing mode                      : Packed bitstream\nCodec ID                         : XVID\nCodec ID/Hint                    : XviD\nDuration                         : 1h 28mn\nBit rate                         : 958 Kbps\nWidth                            : 576 pixels\nHeight                           : 320 pixels\nDisplay aspect ratio             : 16:9\nFrame rate                       : 23.976 fps\nColor space                      : YUV\nChroma subsampling               : 4:2:0\nBit depth                        : 8 bits\nScan type                        : Progressive\nCompression mode                 : Lossy\nBits/(Pixel*Frame)               : 0.217\nStream size                      : 609 MiB (87%)\nWriting library                  : XviD 61\n\nAudio\nID                               : 1\nFormat                           : MPEG Audio\nFormat version                   : Version 1\nFormat profile                   : Layer 3\nMode                             : Joint stereo\nMode extension                   : MS Stereo\nCodec ID                         : 55\nCodec ID/Hint                    : MP3\nDuration                         : 1h 28mn\nBit rate mode                    : Variable\nBit rate                         : 133 Kbps\nMinimum bit rate                 : 128 Kbps\nChannel(s)                       : 2 channels\nSampling rate                    : 48.0 KHz\nCompression mode                 : Lossy\nStream size                      : 84.4 MiB (12%)\nAlignment                        : Aligned on interleaves\nInterleave, duration             : 24 ms (0.58 video frame)\nInterleave, preload duration     : 138 ms\nWriting library                  : LAME3.95 \nEncoding settings                : -m j -V 4 -q 3 -lowpass 18 --vbr-old -b 128","torrent":{"xt":"urn:btih:76c9cfe680c70b98227afd9660082d89f4910164","amp;dn":"Seconds.Apart.2011.DVDRip.XviD-SPRiNTER","amp;tr":["udp%3A%2F%2Ftracker.openbittorrent.com%3A80","udp%3A%2F%2Fopen.demonii.com%3A1337","udp%3A%2F%2Ftracker.coppersurfer.tk%3A6969","udp%3A%2F%2Fexodus.desync.com%3A6969"],"infoHash":"76c9cfe680c70b98227afd9660082d89f4910164","infoHashBuffer":{"type":"Buffer","data":[118,201,207,230,128,199,11,152,34,122,253,150,96,8,45,137,244,145,1,100]},"announce":[],"urlList":[]}}